<?xml version="1.0" encoding="UTF-8"?> <svg xmlns="http://www.w3.org/2000/svg" width="157" height="94" viewBox="0 0 157 94" fill="none"><mask id="mask0_827_1533" style="mask-type:luminance" maskUnits="userSpaceOnUse" x="0" y="54" width="12" height="24"><path d="M0 54.57H11.6968V56.9569H0V54.57ZM4.51094 56.9569H7.18469V74.7769H4.51094V56.9569ZM0 74.7769H11.6968V77.1626H0V74.7769Z" fill="white"></path></mask><g mask="url(#mask0_827_1533)"><path d="M-1.46899 52.9117H35.8797V78.8229H-1.46899V52.9117Z" fill="#3F71C9"></path></g><mask id="mask1_827_1533" style="mask-type:luminance" maskUnits="userSpaceOnUse" x="14" y="54" width="21" height="24"><path d="M14.219 54.3272H34.4626V77.404H14.219V54.3272Z" fill="white"></path></mask><g mask="url(#mask1_827_1533)"><mask id="mask2_827_1533" style="mask-type:luminance" maskUnits="userSpaceOnUse" x="14" y="54" width="21" height="24"><path d="M21.4218 58.0224C22.8275 57.2363 24.4134 56.837 26.1335 56.837C28.7189 56.837 30.8878 57.7057 32.585 59.4224L32.7112 59.5486L34.4508 57.8089L34.3372 57.685C33.3504 56.6109 32.1294 55.7835 30.7122 55.2258C29.2973 54.6681 27.7355 54.3858 26.0716 54.3858C23.85 54.3858 21.8119 54.885 20.0126 55.8685C18.2144 56.8519 16.7846 58.2404 15.7656 59.9869C14.7477 61.7323 14.2336 63.7141 14.2336 65.8749C14.2336 68.0346 14.75 70.0164 15.7656 71.7629C16.7812 73.5083 18.2075 74.8945 19.9954 75.8803C21.7833 76.8671 23.8144 77.3629 26.0394 77.3629C27.7057 77.3629 29.2732 77.0748 30.6938 76.5091C32.1202 75.9388 33.3481 75.1057 34.3338 74.0339L34.4486 73.9111L32.7077 72.1703L32.585 72.3C30.9119 74.0339 28.7419 74.9152 26.1358 74.9152C24.4157 74.9152 22.8309 74.5158 21.4252 73.7286C20.0195 72.9426 18.9007 71.8501 18.1054 70.488C17.3102 69.127 16.9051 67.571 16.9051 65.8749C16.9051 64.1777 17.3067 62.6251 18.102 61.2607C18.8972 59.8951 20.0126 58.8061 21.4195 58.0201" fill="white"></path></mask><g mask="url(#mask2_827_1533)"><path d="M-1.46704 52.9173H35.8817V78.8285H-1.46704V52.9173Z" fill="#3F71C9"></path></g></g><mask id="mask3_827_1533" style="mask-type:luminance" maskUnits="userSpaceOnUse" x="38" y="53" width="8" height="25"><path d="M38.4763 53.1363H45.7597V77.4147H38.4763V53.1363Z" fill="white"></path></mask><g mask="url(#mask3_827_1533)"><mask id="mask4_827_1533" style="mask-type:luminance" maskUnits="userSpaceOnUse" x="38" y="53" width="8" height="25"><path d="M45.2523 74.7593C44.8529 74.9383 44.3664 75.0301 43.7995 75.0301C42.9251 75.0301 42.2618 74.7891 41.8326 74.3106C41.3989 73.8264 41.1786 73.1046 41.1786 72.1567V53.2328H38.5725V72.3472C38.5725 73.8906 39.0005 75.1208 39.8428 75.9952C40.6851 76.8708 41.9038 77.3217 43.4507 77.3217C44.1667 77.3217 44.8713 77.2024 45.5438 76.9614L45.6723 76.9167L45.4818 74.6572L45.2523 74.7593Z" fill="white"></path></mask><g mask="url(#mask4_827_1533)"><path d="M37.105 51.7635H84.2892V78.7867H37.105V51.7635Z" fill="#3F71C9"></path></g></g><mask id="mask5_827_1533" style="mask-type:luminance" maskUnits="userSpaceOnUse" x="46" y="59" width="18" height="19"><path d="M46.2861 59.894H63.0699V77.4156H46.2861V59.894Z" fill="white"></path></mask><g mask="url(#mask5_827_1533)"><mask id="mask6_827_1533" style="mask-type:luminance" maskUnits="userSpaceOnUse" x="46" y="59" width="18" height="19"><path d="M60.3659 66.7474L48.9422 68.9667C48.933 68.8382 48.9307 68.6764 48.9307 68.4802C48.9307 67.265 49.1855 66.176 49.6881 65.2419C50.1896 64.3089 50.8941 63.5745 51.7835 63.0558C52.6728 62.536 53.6941 62.2686 54.8244 62.2686C56.2772 62.2686 57.5223 62.7093 58.5229 63.5745C59.4823 64.4088 60.1019 65.4737 60.3693 66.7474M63.0075 68.1222C62.9639 66.5512 62.576 65.134 61.8542 63.9073C61.1324 62.6794 60.149 61.7052 58.9303 61.0155C57.7128 60.3258 56.33 59.977 54.8244 59.977C53.2133 59.977 51.7514 60.3488 50.4776 61.0798C49.2038 61.8107 48.194 62.8527 47.4722 64.1678C46.7527 65.4805 46.3855 66.9827 46.3855 68.6386C46.3855 70.2933 46.7676 71.7989 47.5216 73.1116C48.2755 74.4233 49.3438 75.4687 50.7037 76.2134C52.0566 76.957 53.6264 77.3323 55.3649 77.3323C56.7179 77.3323 57.9675 77.0913 59.0864 76.6185C60.2041 76.1469 61.1611 75.4446 61.9162 74.5346L62.0126 74.421L60.5093 72.6916L60.3773 72.8477C59.7852 73.5431 59.0542 74.0767 58.2028 74.4347C57.349 74.7962 56.4069 74.9787 55.3971 74.9787C53.8938 74.9787 52.5879 74.6 51.5104 73.8506C50.4891 73.1403 49.7581 72.1603 49.3358 70.9394L63.0109 68.2805L63.0075 68.1222Z" fill="white"></path></mask><g mask="url(#mask6_827_1533)"><path d="M37.1038 51.7733H84.288V78.7965H37.1038V51.7733Z" fill="#3F71C9"></path></g></g><mask id="mask7_827_1533" style="mask-type:luminance" maskUnits="userSpaceOnUse" x="65" y="59" width="18" height="19"><path d="M65.4998 59.894H82.917V77.4156H65.4998V59.894Z" fill="white"></path></mask><g mask="url(#mask7_827_1533)"><mask id="mask8_827_1533" style="mask-type:luminance" maskUnits="userSpaceOnUse" x="65" y="59" width="18" height="19"><path d="M79.4975 65.3187C80.0197 66.285 80.287 67.4004 80.287 68.6328C80.287 69.8653 80.0231 70.9841 79.4975 71.9492C78.9754 72.912 78.2502 73.6636 77.3402 74.1834C76.4302 74.7033 75.394 74.9695 74.2671 74.9695C73.1161 74.9695 72.0719 74.7056 71.1619 74.1834C70.2519 73.6613 69.5266 72.9097 69.0045 71.9492C68.4812 70.9898 68.215 69.8721 68.215 68.6328C68.215 67.3946 68.4789 66.2815 69.0045 65.3187C69.5301 64.356 70.2519 63.6055 71.1619 63.0857C72.0719 62.5658 73.1161 62.2984 74.2671 62.2984C75.394 62.2984 76.4302 62.5635 77.3402 63.0857C78.2502 63.6078 78.9754 64.3594 79.4975 65.3187ZM80.2549 62.8952C79.5939 62.0173 78.778 61.3276 77.8279 60.8376C76.7148 60.265 75.4525 59.977 74.0766 59.977C72.485 59.977 71.0242 60.3408 69.732 61.0637C68.4411 61.7855 67.4106 62.8183 66.6796 64.1333C65.9486 65.4484 65.5757 66.9597 65.5757 68.6363C65.5757 70.3117 65.9486 71.8264 66.6796 73.138C67.4106 74.4531 68.4376 75.4928 69.732 76.2237C71.0265 76.9547 72.485 77.3265 74.0766 77.3265C75.4972 77.3265 76.7917 77.0213 77.9243 76.4165C78.887 75.9036 79.6995 75.1841 80.349 74.2775V77.1682H82.8644V60.1009H80.2549V62.8952Z" fill="white"></path></mask><g mask="url(#mask8_827_1533)"><path d="M37.1021 51.7733H84.2862V78.7965H37.1021V51.7733Z" fill="#3F71C9"></path></g></g><mask id="mask9_827_1533" style="mask-type:luminance" maskUnits="userSpaceOnUse" x="66" y="0" width="17" height="35"><path d="M66.4937 9.53674e-06H82.162V34.7496H66.4937V9.53674e-06Z" fill="white"></path></mask><g mask="url(#mask9_827_1533)"><mask id="mask10_827_1533" style="mask-type:luminance" maskUnits="userSpaceOnUse" x="66" y="0" width="17" height="35"><path d="M80.9679 34.2605L79.6666 34.451C79.2293 34.5072 78.807 34.5565 78.332 34.5921C77.4243 34.7034 76.4741 34.7183 75.5377 34.5565L74.1309 34.249C73.6707 34.1021 73.2151 33.9254 72.7699 33.72L71.4663 33.0097C71.044 32.7435 70.647 32.4348 70.266 32.1066C68.7421 30.7823 67.5624 28.983 66.9932 26.9691C66.7167 25.9569 66.5617 24.8943 66.5824 23.8501C66.5904 22.8012 66.7431 21.7776 66.9783 20.8057C67.4775 18.8629 68.2693 17.1313 69.1357 15.5431L70.4473 13.2331L71.7543 11.0253C73.4974 8.09677 75.2463 5.12352 77.0456 2.19961L78.3457 0.0927429L79.3177 1.98273C79.5644 2.46125 79.8284 2.92715 80.0602 3.41829L80.7647 4.88254C81.0023 5.37024 81.2077 5.87745 81.4337 6.37318L81.7505 7.13399C81.8537 7.38875 81.957 7.6412 82.05 7.90514L81.8537 8.04628L79.9695 5.44942C79.3418 4.58303 78.713 3.71665 78.0933 2.84567L78.4134 2.81583C76.9699 5.9681 75.4172 9.06758 73.7648 12.12L71.2517 16.6608C70.453 18.1847 69.714 19.7465 69.2791 21.3955C68.8419 23.0399 68.7512 24.7773 69.1621 26.424C69.5671 28.0673 70.4094 29.6049 71.5868 30.8294C72.1709 31.4456 72.8399 31.9803 73.5594 32.4325C74.2835 32.8754 75.0592 33.2415 75.8694 33.5089C76.6795 33.7797 77.5218 33.9461 78.3721 34.0229L80.9529 34.0195L80.9679 34.2605Z" fill="white"></path></mask><g mask="url(#mask10_827_1533)"><path d="M58.2739 -1.38092H97.9865V45.778H58.2739V-1.38092Z" fill="#3F71C9"></path></g></g><mask id="mask11_827_1533" style="mask-type:luminance" maskUnits="userSpaceOnUse" x="59" y="6" width="36" height="35"><path d="M59.668 6.83254H94.4175V40.0295H59.668V6.83254Z" fill="white"></path></mask><g mask="url(#mask11_827_1533)"><mask id="mask12_827_1533" style="mask-type:luminance" maskUnits="userSpaceOnUse" x="59" y="6" width="36" height="34"><path d="M94.0535 18.2505L93.2342 16.7863C92.9209 16.3226 92.618 15.8579 92.3035 15.4069L91.2822 14.1148L90.4514 13.214C90.3585 13.1142 90.2517 13.0292 90.1554 12.9374L88.9344 11.884L88.3032 11.394C88.0829 11.2448 87.8546 11.106 87.6342 10.9625C86.7506 10.375 85.7821 9.94352 84.8136 9.56254C82.8559 8.82239 80.7663 8.51485 78.6881 8.55616C77.6484 8.57337 76.6099 8.67894 75.5829 8.84304C74.5696 9.00484 73.6011 9.27451 72.6532 9.63254C71.7076 9.99746 70.7977 10.4519 69.9382 10.9797C69.0752 11.503 68.2501 12.0928 67.4905 12.7561C65.97 14.0735 64.6962 15.6651 63.7943 17.414C62.8877 19.1548 62.2944 21.0356 62.1981 22.9439C62.0948 24.8522 62.4597 26.7572 63.2079 28.5358C63.9331 30.3202 65.0302 31.9956 66.4393 33.3727L66.9764 33.8799C67.067 33.9625 67.1519 34.0532 67.246 34.1323L67.5375 34.3618L68.1147 34.8231C68.3064 34.9781 68.5232 35.0986 68.7229 35.2397L69.3391 35.6448L69.9852 35.9971C70.4075 36.2495 70.8596 36.4343 71.3026 36.642L71.9842 36.9094L72.6739 37.1526C72.9057 37.2318 73.1432 37.2731 73.3784 37.3385L74.0888 37.5084L74.8071 37.6139C75.0481 37.6495 75.2856 37.6931 75.5381 37.6989L76.2863 37.7436C76.5365 37.7608 76.7832 37.7402 77.0299 37.7402L78.5033 37.6438C78.7466 37.6174 78.9841 37.5612 79.2251 37.5233L79.5854 37.4613C79.7059 37.4384 79.8207 37.4028 79.9377 37.3764C80.8925 37.1767 81.7956 36.8153 82.6562 36.3723L83.2897 36.0177L83.9002 35.6184C84.2823 35.3189 84.6782 35.0286 85.0247 34.6843L85.2944 34.4353L85.5446 34.1622C85.7052 33.9774 85.8911 33.8099 86.0346 33.6079L86.4982 33.0238L86.9239 32.4064C87.4644 31.5619 87.9096 30.6461 88.2562 29.6799C88.6027 28.7148 88.8082 27.6935 88.9493 26.6596C89.2282 24.5849 89.0377 22.4241 88.4501 20.3459C88.177 19.2982 87.749 18.2884 87.2647 17.3026L86.886 16.5659C86.7506 16.3249 86.6015 16.0931 86.4569 15.8522L86.24 15.4941L85.999 15.151L85.5147 14.4648L85.6972 14.2938C87.22 15.9704 88.4673 17.9131 89.2454 20.0498C89.639 21.1124 89.9408 22.2129 90.0991 23.3398C90.2644 24.4609 90.3436 25.6027 90.2609 26.7365C90.1875 27.8691 90.0142 28.9994 89.6975 30.0942C89.3773 31.1855 88.9378 32.2423 88.3824 33.2373C87.8282 34.2322 87.1236 35.1422 86.3341 35.9638L85.0661 37.1148L84.3707 37.6139C84.1446 37.7872 83.8864 37.9135 83.6454 38.0684C82.6585 38.6387 81.6051 39.108 80.4989 39.3961L80.2258 39.4775L79.6681 39.598C79.3892 39.6508 79.1104 39.7208 78.8281 39.7598L77.1286 39.9205C75.9902 39.9974 74.8519 39.8941 73.7216 39.7415L72.885 39.5682C72.6085 39.5016 72.3239 39.4569 72.0508 39.3754L71.2383 39.1138C70.9652 39.0289 70.6921 38.9439 70.4339 38.8234C66.2075 37.1239 62.6525 33.7341 60.9059 29.4952C60.0292 27.3757 59.6184 25.0634 59.7676 22.7798C59.9168 20.4962 60.6271 18.2654 61.731 16.2756C62.8349 14.2789 64.3348 12.5128 66.0928 11.0715C67.8508 9.63025 69.8647 8.48845 72.0221 7.76321C73.1019 7.40519 74.2173 7.14699 75.3442 7.01732C76.4722 6.8888 77.6071 6.81191 78.7409 6.8647C81.0061 6.95076 83.2725 7.41666 85.3472 8.35075C87.4173 9.29287 89.2809 10.6722 90.7899 12.3683C92.3035 14.062 93.4637 16.0518 94.2853 18.1598L94.0535 18.2505Z" fill="white"></path></mask><g mask="url(#mask12_827_1533)"><path d="M58.272 -1.39143H97.9846V45.7675H58.272V-1.39143Z" fill="#3F71C9"></path></g></g><mask id="mask13_827_1533" style="mask-type:luminance" maskUnits="userSpaceOnUse" x="71" y="28" width="26" height="17"><path d="M71.9238 28.7056H96.59V44.3706H71.9238V28.7056Z" fill="white"></path></mask><g mask="url(#mask13_827_1533)"><mask id="mask14_827_1533" style="mask-type:luminance" maskUnits="userSpaceOnUse" x="71" y="28" width="26" height="17"><path d="M96.5167 29.2588C95.8822 31.9326 94.7002 34.4457 93.0914 36.6145L92.9445 36.8199L92.7827 37.0138L92.4568 37.4017C92.2376 37.6565 92.0322 37.9238 91.7992 38.1671L90.7343 39.2389L90.3522 39.5671L89.5891 40.2189C89.3309 40.4335 89.0498 40.6148 88.7824 40.8122L88.3739 41.1025C88.2396 41.2023 88.1042 41.2964 87.9573 41.3779L87.1001 41.8886C84.8027 43.2277 82.2139 44.0023 79.6193 44.272L78.8884 44.3489L78.6439 44.3546L77.1797 44.3787L76.692 44.358C76.3661 44.3431 76.0436 44.3133 75.7212 44.2812C74.4325 44.1457 73.161 43.8795 71.9343 43.4859C73.1874 43.7797 74.4646 43.9403 75.7418 43.9702L76.6977 43.9667L77.174 43.9495L78.8321 43.7854L79.5333 43.6535C82.0165 43.1899 84.4034 42.2535 86.446 40.8294L87.2057 40.2889C87.3353 40.204 87.4558 40.1041 87.5729 40.002L87.9286 39.7025C88.1604 39.4994 88.4071 39.3123 88.6298 39.0943L89.6098 38.112L90.5025 37.0552C90.693 36.8142 90.8606 36.556 91.0396 36.3093L91.4389 35.7493L91.556 35.5519C92.8481 33.4771 93.7041 31.1614 94.0714 28.7895L96.5167 29.2588Z" fill="white"></path></mask><g mask="url(#mask14_827_1533)"><path d="M58.2737 -1.38906H97.9863V45.7699H58.2737V-1.38906Z" fill="#3F71C9"></path></g></g><mask id="mask15_827_1533" style="mask-type:luminance" maskUnits="userSpaceOnUse" x="88" y="59" width="17" height="19"><path d="M88.8027 59.9645H104.558V77.1706H88.8027V59.9645Z" fill="white"></path></mask><g mask="url(#mask15_827_1533)"><mask id="mask16_827_1533" style="mask-type:luminance" maskUnits="userSpaceOnUse" x="88" y="59" width="17" height="19"><path d="M97.4896 59.977C96.0276 59.977 94.7252 60.2685 93.6121 60.8376C92.6791 61.3185 91.9068 61.9703 91.3147 62.777V60.1032H88.7993V77.1716H91.4077V68.2254C91.4077 66.3963 91.9195 64.9469 92.9316 63.9165C93.9437 62.886 95.3357 62.3639 97.0788 62.3639C98.6314 62.3639 99.8386 62.8034 100.668 63.6755C101.499 64.5476 101.922 65.8443 101.922 67.5232V77.1716H104.531V67.304C104.531 64.9343 103.888 63.1029 102.62 61.8555C101.352 60.6081 99.6263 59.977 97.4896 59.977Z" fill="white"></path></mask><g mask="url(#mask16_827_1533)"><path d="M88.7993 59.977H104.53V77.1831H88.7993V59.977Z" fill="#3F71C9"></path></g></g><mask id="mask17_827_1533" style="mask-type:luminance" maskUnits="userSpaceOnUse" x="109" y="53" width="5" height="4"><path d="M109.804 53.2294H113.465V56.8062H109.804V53.2294Z" fill="white"></path></mask><g mask="url(#mask17_827_1533)"><mask id="mask18_827_1533" style="mask-type:luminance" maskUnits="userSpaceOnUse" x="109" y="53" width="5" height="4"><path d="M111.635 53.2328C111.123 53.2328 110.683 53.4118 110.333 53.7618C109.984 54.1106 109.805 54.5272 109.805 55C109.805 55.49 109.984 55.9191 110.333 56.268C110.683 56.6168 111.123 56.7959 111.635 56.7959C112.145 56.7959 112.585 56.6168 112.935 56.268C113.284 55.9191 113.463 55.4785 113.463 54.9678C113.463 54.4951 113.284 54.0842 112.931 53.7434C112.579 53.4038 112.145 53.2328 111.635 53.2328Z" fill="white"></path></mask><g mask="url(#mask18_827_1533)"><path d="M109.805 53.2328H113.466V56.7959H109.805V53.2328Z" fill="#3F71C9"></path></g></g><mask id="mask19_827_1533" style="mask-type:luminance" maskUnits="userSpaceOnUse" x="110" y="60" width="3" height="18"><path d="M110.312 60.0924H112.921V77.1574H110.312V60.0924Z" fill="white"></path></mask><g mask="url(#mask19_827_1533)"><path d="M110.312 60.0924H112.921V77.1574H110.312V60.0924Z" fill="#3F71C9"></path></g><mask id="mask20_827_1533" style="mask-type:luminance" maskUnits="userSpaceOnUse" x="118" y="59" width="17" height="19"><path d="M118.859 59.9645H134.653V77.1706H118.859V59.9645Z" fill="white"></path></mask><g mask="url(#mask20_827_1533)"><mask id="mask21_827_1533" style="mask-type:luminance" maskUnits="userSpaceOnUse" x="118" y="59" width="17" height="19"><path d="M127.551 59.977C126.089 59.977 124.786 60.2685 123.673 60.8376C122.74 61.3185 121.968 61.9703 121.372 62.777V60.1032H118.859V77.1716H121.469V68.2254C121.469 66.3963 121.979 64.9469 122.993 63.9165C124.005 62.886 125.397 62.3639 127.14 62.3639C128.692 62.3639 129.898 62.8034 130.729 63.6755C131.56 64.5476 131.982 65.8443 131.982 67.5232V77.1716H134.592V67.304C134.592 64.9343 133.949 63.1029 132.681 61.8555C131.413 60.6081 129.685 59.977 127.551 59.977Z" fill="white"></path></mask><g mask="url(#mask21_827_1533)"><path d="M118.859 59.977H134.591V77.1831H118.859V59.977Z" fill="#3F71C9"></path></g></g><mask id="mask22_827_1533" style="mask-type:luminance" maskUnits="userSpaceOnUse" x="138" y="59" width="19" height="25"><path d="M138.749 59.9027H156.26V83.5005H138.749V59.9027Z" fill="white"></path></mask><g mask="url(#mask22_827_1533)"><mask id="mask23_827_1533" style="mask-type:luminance" maskUnits="userSpaceOnUse" x="138" y="59" width="19" height="25"><path d="M153.714 68.2254C153.714 69.3753 153.45 70.4149 152.926 71.3135C152.404 72.2108 151.664 72.9211 150.725 73.4238C149.78 73.9252 148.709 74.1811 147.535 74.1811C146.36 74.1811 145.295 73.9252 144.362 73.4238C143.428 72.9211 142.695 72.2108 142.175 71.3135C141.655 70.4149 141.391 69.373 141.391 68.2254C141.391 67.0779 141.655 66.0382 142.179 65.1374C142.701 64.2366 143.434 63.5343 144.365 63.0443C145.299 62.5509 146.367 62.3019 147.541 62.3019C148.732 62.3019 149.81 62.5578 150.746 63.0593C151.677 63.5607 152.413 64.2653 152.932 65.1547C153.452 66.044 153.719 67.0779 153.719 68.2277M153.746 60.1032V62.9296C153.077 62.0494 152.237 61.3506 151.239 60.8549C150.077 60.2708 148.756 59.977 147.315 59.977C145.704 59.977 144.233 60.327 142.942 61.0132C141.65 61.7006 140.613 62.6898 139.871 63.9394C139.128 65.1902 138.75 66.6315 138.75 68.2254C138.75 69.8194 139.128 71.263 139.871 72.5252C140.613 73.7875 141.653 74.7824 142.959 75.4836C144.265 76.1859 145.727 76.537 147.315 76.537C148.711 76.537 150.006 76.2524 151.157 75.6924C152.146 75.2105 152.983 74.5323 153.652 73.6693V75.2495C153.652 77.2657 153.167 78.7678 152.21 79.7134C151.253 80.6589 149.725 81.1398 147.664 81.1398C146.42 81.1398 145.216 80.9401 144.083 80.5465C142.955 80.154 141.987 79.5986 141.203 78.8975L141.051 78.7621L139.709 80.7726L139.822 80.8758C140.705 81.6952 141.864 82.3435 143.27 82.8037C144.67 83.265 146.17 83.4968 147.726 83.4968C150.556 83.4968 152.709 82.7899 154.124 81.398C155.539 80.0071 156.258 77.8383 156.258 74.9637V60.1032H153.746Z" fill="white"></path></mask><g mask="url(#mask23_827_1533)"><path d="M138.75 59.977H156.261V83.5071H138.75V59.977Z" fill="#3F71C9"></path></g></g><path d="M2.93493 91.3746V90.6375H5.73213V93H4.89423L4.84383 92.307C4.42803 92.7606 3.76653 93.063 2.82783 93.063C1.20243 93.063 0.207031 92.2566 0.207031 90.795C0.207031 89.3334 1.20243 88.527 3.01683 88.527C4.78083 88.527 5.66283 89.2137 5.73213 90.3099H4.57923C4.51623 89.976 4.21383 89.4783 3.01683 89.4783C1.54263 89.4783 1.34103 90.291 1.34103 90.8202C1.34103 91.3557 1.54893 92.1873 3.01683 92.1873C4.11303 92.1873 4.55403 91.7085 4.57923 91.3746H2.93493Z" fill="#3F71C9"></path><path d="M8.85452 93.063C6.91412 93.063 6.08252 92.2566 6.08252 90.7887C6.08252 89.3271 6.91412 88.527 8.85452 88.527C10.7886 88.527 11.6265 89.3334 11.6265 90.7887C11.6265 92.2503 10.7886 93.063 8.85452 93.063ZM8.85452 92.1117C10.0326 92.1117 10.4925 91.6896 10.4925 90.7887C10.4925 89.8941 10.0389 89.4783 8.85452 89.4783C7.67012 89.4783 7.21652 89.8878 7.21652 90.7887C7.21652 91.6959 7.67642 92.1117 8.85452 92.1117Z" fill="#3F71C9"></path><path d="M13.1735 92.0487H16.5755V93H12.0395V88.59H13.1735V92.0487Z" fill="#3F71C9"></path><path d="M20.2171 88.59C21.3574 88.59 22.3591 89.2956 22.3591 90.795C22.3591 92.2944 21.3574 93 20.2171 93H17.0167V88.59H20.2171ZM19.7887 92.0487C20.6455 92.0487 21.2251 91.866 21.2251 90.795C21.2251 89.724 20.6455 89.5413 19.7887 89.5413H18.1507V92.0487H19.7887Z" fill="#3F71C9"></path><path d="M27.4312 89.4909H23.9032V90.3855H27.4312V91.2045H23.9032V92.0991H27.4312V93H22.7692V88.59H27.4312V89.4909Z" fill="#3F71C9"></path><path d="M32.3934 88.59H33.5274V93H31.9839L28.9788 89.6925V93H27.8448V88.59H29.382L32.3934 91.9038V88.59Z" fill="#3F71C9"></path><path d="M36.8873 91.4817H38.0213C38.0213 91.9479 38.3993 92.1621 39.8357 92.1621C41.0264 92.1621 41.3855 92.0298 41.3855 91.6833C41.3855 91.3179 41.1335 91.2549 39.7034 91.1856C37.7819 91.0974 37.0196 90.795 37.0196 89.8059C37.0196 88.8357 38.0087 88.527 39.6593 88.527C41.3225 88.527 42.3305 88.9428 42.3305 90.0327H41.1965C41.1965 89.5476 40.7114 89.4279 39.5333 89.4279C38.4182 89.4279 38.1536 89.535 38.1536 89.8626C38.1536 90.2028 38.4182 90.2658 39.7034 90.3414C41.4422 90.4359 42.5195 90.5304 42.5195 91.6455C42.5195 92.8236 41.4044 93.063 39.7727 93.063C37.9646 93.063 36.8873 92.7543 36.8873 91.4817Z" fill="#3F71C9"></path><path d="M49.684 88.59V93H48.55V89.976L46.7167 93H45.8977L44.0644 89.976V93H42.9304V88.59H44.4613L46.3072 91.7022L48.1531 88.59H49.684Z" fill="#3F71C9"></path><path d="M54.787 93L54.3145 92.0613H51.6748L51.2023 93H49.9549L52.2292 88.59H53.7601L56.0407 93H54.787ZM52.0969 91.2171H53.8924L52.9978 89.4279L52.0969 91.2171Z" fill="#3F71C9"></path><path d="M61.4651 90.2091C61.4651 90.9273 61.0997 91.4565 60.5075 91.6896L61.3202 93H59.9846L59.2727 91.8219H57.4457V93H56.3117V88.59H59.7767C60.7784 88.59 61.4651 89.2263 61.4651 90.2091ZM57.4457 89.5413V90.8706H59.4617C59.8019 90.8706 60.3311 90.8706 60.3311 90.2091C60.3311 89.5413 59.8019 89.5413 59.4617 89.5413H57.4457Z" fill="#3F71C9"></path><path d="M67.1116 88.59V89.5413H64.9696V93H63.8356V89.5413H61.6936V88.59H67.1116Z" fill="#3F71C9"></path><path d="M70.4053 90.7887C70.4053 89.3271 71.2369 88.527 73.1773 88.527C74.935 88.527 75.817 89.1948 75.9304 90.4674H74.7775C74.6704 89.7555 74.1223 89.4783 73.1773 89.4783C72.0244 89.4783 71.5393 89.8878 71.5393 90.7887C71.5393 91.6959 72.0307 92.1117 73.1773 92.1117C74.116 92.1117 74.6704 91.8282 74.7775 91.11H75.9304C75.817 92.3889 74.935 93.063 73.1773 93.063C71.2369 93.063 70.4053 92.2566 70.4053 90.7887Z" fill="#3F71C9"></path><path d="M77.4778 92.0487H80.8798V93H76.3438V88.59H77.4778V92.0487Z" fill="#3F71C9"></path><path d="M85.983 89.4909H82.455V90.3855H85.983V91.2045H82.455V92.0991H85.983V93H81.321V88.59H85.983V89.4909Z" fill="#3F71C9"></path><path d="M91.1658 93L90.6933 92.0613H88.0536L87.5811 93H86.3337L88.608 88.59H90.1389L92.4195 93H91.1658ZM88.4757 91.2171H90.2712L89.3766 89.4279L88.4757 91.2171Z" fill="#3F71C9"></path><path d="M97.2391 88.59H98.3731V93H96.8296L93.8245 89.6925V93H92.6905V88.59H94.2277L97.2391 91.9038V88.59Z" fill="#3F71C9"></path><path d="M100.014 88.59V93H98.8798V88.59H100.014Z" fill="#3F71C9"></path><path d="M105.065 88.59H106.199V93H104.655L101.65 89.6925V93H100.516V88.59H102.054L105.065 91.9038V88.59Z" fill="#3F71C9"></path><path d="M109.309 91.3746V90.6375H112.106V93H111.268L111.218 92.307C110.802 92.7606 110.141 93.063 109.202 93.063C107.576 93.063 106.581 92.2566 106.581 90.795C106.581 89.3334 107.576 88.527 109.391 88.527C111.155 88.527 112.037 89.2137 112.106 90.3099H110.953C110.89 89.976 110.588 89.4783 109.391 89.4783C107.917 89.4783 107.715 90.291 107.715 90.8202C107.715 91.3557 107.923 92.1873 109.391 92.1873C110.487 92.1873 110.928 91.7085 110.953 91.3746H109.309Z" fill="#3F71C9"></path><path d="M115.404 91.4817H116.538C116.538 91.9479 116.916 92.1621 118.352 92.1621C119.543 92.1621 119.902 92.0298 119.902 91.6833C119.902 91.3179 119.65 91.2549 118.22 91.1856C116.298 91.0974 115.536 90.795 115.536 89.8059C115.536 88.8357 116.525 88.527 118.176 88.527C119.839 88.527 120.847 88.9428 120.847 90.0327H119.713C119.713 89.5476 119.228 89.4279 118.05 89.4279C116.934 89.4279 116.67 89.535 116.67 89.8626C116.67 90.2028 116.934 90.2658 118.22 90.3414C119.958 90.4359 121.036 90.5304 121.036 91.6455C121.036 92.8236 119.921 93.063 118.289 93.063C116.481 93.063 115.404 92.7543 115.404 91.4817Z" fill="#3F71C9"></path><path d="M126.109 89.4909H122.581V90.3855H126.109V91.2045H122.581V92.0991H126.109V93H121.447V88.59H126.109V89.4909Z" fill="#3F71C9"></path><path d="M131.676 90.2091C131.676 90.9273 131.31 91.4565 130.718 91.6896L131.531 93H130.195L129.483 91.8219H127.656V93H126.522V88.59H129.987C130.989 88.59 131.676 89.2263 131.676 90.2091ZM127.656 89.5413V90.8706H129.672C130.012 90.8706 130.542 90.8706 130.542 90.2091C130.542 89.5413 130.012 89.5413 129.672 89.5413H127.656Z" fill="#3F71C9"></path><path d="M136.391 88.59H137.664L135.396 93H133.846L131.578 88.59H132.851L134.621 92.1621L136.391 88.59Z" fill="#3F71C9"></path><path d="M139.069 88.59V93H137.935V88.59H139.069Z" fill="#3F71C9"></path><path d="M139.447 90.7887C139.447 89.3271 140.278 88.527 142.219 88.527C143.977 88.527 144.859 89.1948 144.972 90.4674H143.819C143.712 89.7555 143.164 89.4783 142.219 89.4783C141.066 89.4783 140.581 89.8878 140.581 90.7887C140.581 91.6959 141.072 92.1117 142.219 92.1117C143.158 92.1117 143.712 91.8282 143.819 91.11H144.972C144.859 92.3889 143.977 93.063 142.219 93.063C140.278 93.063 139.447 92.2566 139.447 90.7887Z" fill="#3F71C9"></path><path d="M150.047 89.4909H146.519V90.3855H150.047V91.2045H146.519V92.0991H150.047V93H145.385V88.59H150.047V89.4909Z" fill="#3F71C9"></path><path d="M150.398 91.4817H151.532C151.532 91.9479 151.91 92.1621 153.346 92.1621C154.537 92.1621 154.896 92.0298 154.896 91.6833C154.896 91.3179 154.644 91.2549 153.214 91.1856C151.293 91.0974 150.53 90.795 150.53 89.8059C150.53 88.8357 151.519 88.527 153.17 88.527C154.833 88.527 155.841 88.9428 155.841 90.0327H154.707C154.707 89.5476 154.222 89.4279 153.044 89.4279C151.929 89.4279 151.664 89.535 151.664 89.8626C151.664 90.2028 151.929 90.2658 153.214 90.3414C154.953 90.4359 156.03 90.5304 156.03 91.6455C156.03 92.8236 154.915 93.063 153.283 93.063C151.475 93.063 150.398 92.7543 150.398 91.4817Z" fill="#3F71C9"></path></svg> 